<?xml version="1.0" standalone="no"?>
<!DOCTYPE svg PUBLIC "-//W3C//DTD SVG 20010904//EN"
 "http://www.w3.org/TR/2001/REC-SVG-20010904/DTD/svg10.dtd">
<svg version="1.0" xmlns="http://www.w3.org/2000/svg"
 width="200.000000pt" height="200.000000pt" viewBox="0 0 200.000000 200.000000"
 preserveAspectRatio="xMidYMid meet">
<metadata>
Created by potrace 1.14, written by Peter Selinger 2001-2017
</metadata>
<g transform="translate(0.000000,200.000000) scale(0.100000,-0.100000)"
fill="#000000" stroke="none">
<path d="M782 1834 c-30 -21 -55 -74 -80 -169 -30 -119 -36 -162 -20 -162 7
-1 51 -5 98 -9 111 -11 310 -11 430 -1 52 5 101 9 108 9 17 2 16 16 -14 137
-51 207 -91 239 -241 195 -50 -15 -60 -15 -118 0 -81 20 -134 20 -163 0z m408
-46 c31 -33 99 -228 79 -228 -5 0 -10 -1 -11 -1 -7 -3 -233 -36 -236 -34 -1 1
35 18 80 37 78 32 83 37 86 67 5 53 -32 116 -83 141 -25 12 -50 18 -57 14 -9
-5 -10 -4 -3 4 10 10 44 18 97 21 17 0 35 -8 48 -21z"/>
<path d="M525 1335 c-87 -27 -260 -85 -385 -131 -34 -12 85 -60 195 -78 85
-14 190 -26 280 -31 55 -4 118 -8 140 -10 50 -6 420 -5 495 0 30 2 93 6 140 9
250 18 470 65 470 101 0 12 -440 164 -481 166 -13 1 -62 -9 -109 -22 -74 -21
-107 -24 -255 -24 -93 0 -189 3 -211 7 -58 10 -136 29 -154 38 -9 5 -61 -6
-125 -25z m1184 -132 c8 -6 -4 -11 -39 -16 -278 -43 -373 -54 -535 -62 l-100
-4 160 24 c221 34 325 58 325 75 0 5 -27 28 -60 50 -33 22 -60 42 -60 44 0 4
302 -104 309 -111z"/>
<path d="M402 987 c-23 -45 -70 -137 -106 -204 -36 -68 -63 -123 -61 -123 4 0
193 76 241 96 11 5 54 -66 54 -89 0 -7 -25 -37 -55 -66 -31 -30 -54 -55 -53
-56 2 -1 91 -39 198 -85 107 -45 210 -89 228 -97 18 -9 34 -14 36 -12 3 2 13
39 24 82 l20 77 -52 26 c-29 14 -73 43 -99 66 -93 79 -195 252 -225 379 -13
54 -20 69 -34 69 -24 0 -29 1 -54 10 -18 7 -25 -1 -62 -73z"/>
<path d="M1399 1039 c-6 -4 -15 -29 -20 -57 -13 -87 -54 -174 -96 -207 -79
-61 -181 -172 -221 -240 -52 -89 -91 -209 -99 -305 l-6 -75 49 60 c119 147
239 252 353 309 62 32 84 39 155 50 16 3 30 7 33 9 2 3 -28 24 -66 48 -39 24
-70 49 -71 55 0 5 14 29 30 51 l30 41 133 -54 c72 -30 141 -59 151 -65 19 -11
19 -11 0 21 -10 17 -68 107 -129 200 l-110 169 -52 -1 c-29 -1 -58 -5 -64 -9z
m172 -151 c39 -62 79 -123 87 -136 13 -19 1 -16 -88 25 l-103 47 -30 -34 c-31
-36 -31 -34 -2 38 18 45 27 48 78 27 23 -10 22 7 -3 80 -32 94 -29 91 61 -47z
m-143 -300 c-101 -17 -275 -139 -369 -256 -66 -85 -70 -86 -33 -13 59 115 178
231 296 287 36 17 37 18 22 45 -25 50 -15 49 56 -4 l71 -52 -43 -7z"/>
<path d="M629 988 c-3 -30 4 -54 26 -86 33 -48 56 -61 133 -76 l69 -13 40 66
c34 57 43 66 68 66 25 0 34 -9 69 -67 44 -73 37 -70 139 -47 67 16 142 101
130 149 -5 18 -20 19 -339 19 -262 1 -334 -1 -335 -11z"/>
</g>
</svg>
