<?xml version="1.0" standalone="no"?>
<!DOCTYPE svg PUBLIC "-//W3C//DTD SVG 20010904//EN"
 "http://www.w3.org/TR/2001/REC-SVG-20010904/DTD/svg10.dtd">
<svg version="1.0" xmlns="http://www.w3.org/2000/svg"
 width="200.000000pt" height="200.000000pt" viewBox="0 0 200.000000 200.000000"
 preserveAspectRatio="xMidYMid meet">

<g transform="translate(0.000000,200.000000) scale(0.100000,-0.100000)"
fill="#cf0e1b" stroke="none">
<path d="M790 1837 c-14 -6 -36 -34 -48 -61 -23 -47 -76 -256 -67 -264 29 -29
621 -29 650 0 6 5 -30 164 -50 223 -38 110 -74 128 -200 100 -69 -15 -81 -15
-145 -1 -83 19 -107 20 -140 3z m408 -52 c21 -27 86 -214 78 -223 -7 -7 -258
-44 -263 -38 -2 2 36 19 84 39 l88 35 -2 40 c-3 78 -61 142 -127 142 -35 0
-25 16 14 23 70 12 108 7 128 -18z"/>
<path d="M380 1285 c-124 -42 -229 -81 -234 -85 -16 -16 83 -52 194 -71 336
-56 854 -62 1230 -13 168 22 300 60 286 83 -3 4 -111 43 -241 86 l-235 79 -88
-24 c-71 -20 -117 -24 -257 -28 -147 -3 -183 -1 -270 18 -55 12 -113 24 -130
26 -20 3 -106 -21 -255 -71z m1177 -21 c87 -31 161 -60 166 -63 7 -7 -122 -30
-318 -56 -60 -8 -175 -17 -255 -19 -123 -4 -135 -4 -75 5 188 26 383 62 415
76 35 15 35 15 13 30 -67 46 -117 83 -111 83 4 0 78 -25 165 -56z"/>
<path d="M342 867 c-56 -107 -102 -197 -102 -200 0 -3 54 16 119 44 66 27 122
49 125 49 3 0 17 -22 30 -48 l25 -49 -55 -54 c-30 -29 -54 -56 -54 -59 0 -8
430 -190 446 -190 10 0 44 109 44 139 0 6 -24 23 -52 37 -70 35 -174 142 -227
231 -50 84 -100 207 -101 245 0 27 -5 31 -65 43 l-30 6 -103 -194z"/>
<path d="M1418 1043 c-22 -4 -27 -10 -33 -46 -9 -60 -34 -137 -57 -175 -11
-18 -47 -53 -80 -78 -157 -121 -261 -312 -283 -520 l-8 -69 60 75 c76 96 214
225 289 270 66 40 175 79 219 80 28 0 24 4 -45 50 -41 28 -74 55 -72 61 1 6
15 28 29 48 15 20 28 37 29 39 1 2 68 -24 148 -57 80 -33 146 -58 146 -55 0 2
-57 90 -127 194 -138 208 -125 197 -215 183z m249 -309 c-2 -2 -48 16 -101 41
l-98 46 -34 -38 -34 -38 16 40 c9 22 20 52 26 68 12 32 7 31 52 12 20 -8 36
-14 36 -13 0 2 -9 35 -20 73 -11 38 -20 74 -20 80 0 5 41 -52 91 -129 49 -76
88 -140 86 -142z m-265 -86 l70 -52 -58 -16 c-96 -26 -181 -78 -269 -165 -45
-44 -98 -100 -119 -125 -32 -40 -35 -42 -26 -15 35 97 142 220 258 296 39 26
78 49 85 52 9 3 8 13 -5 40 -10 21 -15 37 -12 37 4 0 38 -23 76 -52z"/>
<path d="M630 966 c0 -53 69 -120 138 -135 86 -18 88 -17 129 54 33 57 42 65
68 65 26 0 35 -8 68 -65 41 -71 43 -72 129 -54 69 15 138 82 138 135 l0 34
-335 0 -335 0 0 -34z"/>
</g>
</svg>
